<svg id="Layer_1" data-name="Layer 1" xmlns="http://www.w3.org/2000/svg" xmlns:xlink="http://www.w3.org/1999/xlink" viewBox="0 0 350.4677 139.05794"><defs><style>.cls-1,.cls-10,.cls-11,.cls-2,.cls-3,.cls-4,.cls-5,.cls-6,.cls-7,.cls-8,.cls-9{fill:none;stroke-miterlimit:10;}.cls-1{stroke-width:0.62984px;stroke:url(#linear-gradient);}.cls-2{stroke-width:0.53095px;stroke:url(#linear-gradient-2);}.cls-10,.cls-3,.cls-4,.cls-5,.cls-6,.cls-7,.cls-8,.cls-9{stroke-width:0.73257px;}.cls-3{stroke:url(#linear-gradient-3);}.cls-4{stroke:url(#linear-gradient-4);}.cls-5{stroke:url(#linear-gradient-5);}.cls-6{stroke:url(#linear-gradient-6);}.cls-7{stroke:url(#linear-gradient-7);}.cls-8{stroke:url(#linear-gradient-8);}.cls-9{stroke:url(#linear-gradient-9);}.cls-10{stroke:url(#linear-gradient-10);}.cls-11{stroke-width:0.93065px;stroke:url(#linear-gradient-11);}</style><linearGradient id="linear-gradient" x1="668.07366" y1="522.43377" x2="834.04563" y2="522.43377" gradientTransform="translate(-16.60602 17.49071) rotate(-1.60711)" gradientUnits="userSpaceOnUse"><stop offset="0.09967" stop-color="#231f20"/><stop offset="0.1201" stop-color="#393536"/><stop offset="0.16287" stop-color="#726f70"/><stop offset="0.22383" stop-color="#cbcbcc"/><stop offset="0.25377" stop-color="#fafbfc"/><stop offset="0.29033" stop-color="#bcbcbd"/><stop offset="0.32689" stop-color="#868485"/><stop offset="0.36067" stop-color="#5b5859"/><stop offset="0.39082" stop-color="#3c393a"/><stop offset="0.41622" stop-color="#2a2627"/><stop offset="0.43384" stop-color="#231f20"/></linearGradient><linearGradient id="linear-gradient-2" x1="687.21598" y1="529.14038" x2="823.32989" y2="529.14038" xlink:href="#linear-gradient"/><linearGradient id="linear-gradient-3" x1="647.93308" y1="514.83746" x2="844.45433" y2="514.83746" xlink:href="#linear-gradient"/><linearGradient id="linear-gradient-4" x1="658.14961" y1="553.15787" x2="675.67754" y2="553.15787" xlink:href="#linear-gradient"/><linearGradient id="linear-gradient-5" x1="677.96823" y1="550.48147" x2="698.12341" y2="550.48147" xlink:href="#linear-gradient"/><linearGradient id="linear-gradient-6" x1="695.31067" y1="562.19007" x2="704.47767" y2="562.19007" xlink:href="#linear-gradient"/><linearGradient id="linear-gradient-7" x1="786.83002" y1="464.9014" x2="841.17064" y2="464.9014" xlink:href="#linear-gradient"/><linearGradient id="linear-gradient-8" x1="774.68626" y1="478.11986" x2="831.86908" y2="478.11986" xlink:href="#linear-gradient"/><linearGradient id="linear-gradient-9" x1="768.8469" y1="490.47281" x2="820.51276" y2="490.47281" xlink:href="#linear-gradient"/><linearGradient id="linear-gradient-10" x1="703.04761" y1="557.925" x2="727.58933" y2="557.925" xlink:href="#linear-gradient"/><linearGradient id="linear-gradient-11" x1="544.76615" y1="580.46069" x2="895.23385" y2="580.46069" gradientTransform="matrix(1, 0, 0, 1, 0, 0)" xlink:href="#linear-gradient"/></defs><path class="cls-1" d="M667.71687,573.85072c1.23814-8.018,9.66082-57.08258,55.91858-88.125,48.07966-32.265,98.87227-19.45136,106.37587-17.42193q-2.0694,6.5898-4.13884,13.17961c-5.9844-1.67535-51.71149-13.63394-93.48947,15.97377-38.55358,27.3226-44.55037,69.35363-45.41239,76.21577Q677.34374,573.76185,667.71687,573.85072Z" transform="translate(-544.76615 -448.84372)"/><path class="cls-2" d="M686.78572,573.49626c.75472-6.53649,6.40014-49.07141,45.55152-76.57357,39.08479-27.45534,80.93043-18.41211,87.34989-16.91023q-1.917,6.68592-3.83406,13.37189c-4.89143-1.46618-42.26576-11.93646-76.35212,13.75612-31.45558,23.70958-36.29215,60.26188-36.9862,66.22974Z" transform="translate(-544.76615 -448.84372)"/><path class="cls-3" d="M647.63705,573.64524c1.82675-9.67833,13.27356-65.25035,66.7875-100.11542,57.02562-37.153,116.64616-21.36039,125.55143-18.839-.00932.02921-2.358,7.37616-2.36728,7.40537-.00993.031-2.43251,7.60918-2.44244,7.64029-7.0164-2.17486-61.03934-17.90887-111.53081,15.98922-46.05687,30.92086-54.62856,79.94507-55.91858,88.125Q657.677,573.748,647.63705,573.64524Z" transform="translate(-544.76615 -448.84372)"/><path class="cls-4" d="M657.76808,573.753a143.51256,143.51256,0,0,1,15.62751-43.94256" transform="translate(-544.76615 -448.84372)"/><path class="cls-5" d="M677.59613,573.69658a125.217,125.217,0,0,1,18.08419-50.33137" transform="translate(-544.76615 -448.84372)"/><path class="cls-6" d="M694.93791,573.43094a96.16007,96.16007,0,0,1,7.71892-27.09915" transform="translate(-544.76615 -448.84372)"/><path class="cls-7" d="M837.25459,461.45528a157.95292,157.95292,0,0,0-54.33877-3.65459" transform="translate(-544.76615 -448.84372)"/><path class="cls-8" d="M828.30284,474.96831a98.84205,98.84205,0,0,0-57.02831-1.21511" transform="translate(-544.76615 -448.84372)"/><path class="cls-9" d="M817.29041,486.64021A94.565,94.565,0,0,0,765.834,487.7366" transform="translate(-544.76615 -448.84372)"/><path class="cls-10" d="M702.34231,573.73737l9.8413.19794a67.81475,67.81475,0,0,1,13.34314-38.026" transform="translate(-544.76615 -448.84372)"/><path class="cls-11" d="M544.80975,579.62822c26.544-2.49852,59.3541-4.8275,97.044-5.77375,9.09766-.22838,46.94784-1.091,100.05292,1.00991,40.771,1.613,92.74374,5.06022,153.26983,12.5755" transform="translate(-544.76615 -448.84372)"/></svg>