<?xml version="1.0" encoding="UTF-8"?><svg id="Layer_1" xmlns="http://www.w3.org/2000/svg" viewBox="0 0 88 88"><defs><style>.cls-1{fill:#fff;}.cls-2{fill:none;stroke:#fff;stroke-miterlimit:10;stroke-width:4px;}</style></defs><path class="cls-1" d="M35.63,37.85c0-3.16-.43-5.5-1.3-7.02-.87-1.52-2.6-2.28-5.21-2.28h-1.86v-1.86h8.37c2.29,0,4.02,.3,5.16,.88,1.15,.59,1.97,1.66,2.47,3.21,.5,1.55,.74,3.91,.74,7.07v32.57h-8.37V37.85Z"/><path class="cls-1" d="M47.52,43.04c0-3.16-.43-5.5-1.3-7.03-.87-1.52-2.6-2.28-5.21-2.28h-1.86v-1.86h8.37c2.29,0,4.02,.29,5.16,.88,1.15,.59,1.97,1.66,2.47,3.21,.5,1.55,.74,3.91,.74,7.07v32.57h-8.37V43.04Z"/><path class="cls-1" d="M27.38,25.07c1.63-4.44,6.24-6.79,10.8-5.61,4.02,1.07,7.69,1.11,11.11-1.65,2.14-1.6,3.97-3.7,5.8-5.85-1.12,2.58-2.65,5.05-4.8,7.05-9.02,8.38-14.95-3.92-22.91,6.06h0Z"/><path class="cls-1" d="M30.14,19.95c1.09-4.23,4.83-6.8,9.14-5.4,3.58,1.22,6.39,1.19,9.28-1.66,1.72-1.6,3.15-3.59,4.64-5.6-.74,2.38-1.83,4.68-3.51,6.67-7.89,9.01-12.71-4.08-19.54,5.99h0Z"/><rect class="cls-2" x="2" y="2" width="84" height="84" rx="5" ry="5"/></svg>