<svg id="Layer_1" data-name="Layer 1" xmlns="http://www.w3.org/2000/svg" xmlns:xlink="http://www.w3.org/1999/xlink" viewBox="0 0 466.33576 227.78557"><defs><style>.cls-1{opacity:0.6;}.cls-2{font-size:32.92139px;stroke-width:0.91448px;font-family:LucidaCalligraphy-Italic, Lucida Calligraphy;}.cls-14,.cls-15,.cls-2,.cls-36{stroke:#000;}.cls-10,.cls-13,.cls-14,.cls-15,.cls-19,.cls-2,.cls-20,.cls-26,.cls-36,.cls-37{stroke-miterlimit:10;}.cls-16,.cls-2{font-style:italic;}.cls-3{font-size:19.20415px;}.cls-4{fill:url(#linear-gradient);}.cls-5{opacity:0.8;}.cls-6{font-size:91.44831px;fill:#037ffc;font-family:BaskOldFace, Baskerville Old Face;}.cls-7{fill:url(#linear-gradient-8);}.cls-8{font-size:66.60511px;}.cls-8,.cls-9{fill:#4ba3e0;}.cls-21,.cls-24,.cls-8{font-family:Microsoft-Himalaya, Microsoft Himalaya;}.cls-10{fill:#d5dfe2;stroke:#d5dfe2;stroke-width:0.16651px;}.cls-11{fill:#959899;}.cls-12{font-size:28.00242px;fill:#f77237;font-family:LucidaFax, Lucida Fax;}.cls-13,.cls-14,.cls-36,.cls-37{fill:none;}.cls-13{stroke:#f77237;stroke-width:0.58338px;}.cls-14,.cls-15{stroke-width:0.7223px;}.cls-16{font-size:25.19424px;font-family:Garamond-Italic, Garamond;}.cls-17{letter-spacing:0.01221em;}.cls-18{letter-spacing:-0.01318em;}.cls-19,.cls-21,.cls-22,.cls-23,.cls-24,.cls-26{fill:#81a7f2;}.cls-19{stroke:#81a7f2;}.cls-19,.cls-20{stroke-width:0.78468px;}.cls-20{fill:#fff;stroke:#fff;}.cls-21{font-size:25.89453px;}.cls-23{font-size:28.24858px;font-family:EdwardianScriptITC, Edwardian Script ITC;}.cls-24{font-size:17.78512px;}.cls-25{fill:url(#radial-gradient);}.cls-26{stroke:#d0d0d8;stroke-width:0.19617px;}.cls-27{fill:#2ba0f7;}.cls-28{fill:#2a2765;}.cls-29{fill:#272365;}.cls-30{fill:#65bd6e;}.cls-31{fill:#66be6e;}.cls-32{fill:#68be6f;}.cls-33{fill:#231f20;}.cls-34{fill:#2b2b7b;}.cls-35{fill:#2d3079;}.cls-36,.cls-37{stroke-width:0.51393px;}.cls-37{stroke:#2c3279;}</style><linearGradient id="linear-gradient" x1="55.92822" y1="45.90308" x2="197.0498" y2="45.90308" gradientUnits="userSpaceOnUse"><stop offset="0" stop-color="#fff"/><stop offset="0.00211" stop-color="#f7f7f7"/><stop offset="0.00544" stop-color="#e0e0e0"/><stop offset="0.00958" stop-color="#bbb"/><stop offset="0.01437" stop-color="#878787"/><stop offset="0.01965" stop-color="#464646"/><stop offset="0.02208" stop-color="#252525"/><stop offset="0.07687" stop-color="#262626"/><stop offset="0.08466" stop-color="#2a2a2a"/><stop offset="0.09283" stop-color="#373737"/><stop offset="0.10117" stop-color="#4c4c4c"/><stop offset="0.10964" stop-color="#696969"/><stop offset="0.11813" stop-color="#8f8f8f"/><stop offset="0.12661" stop-color="#bcbcbc"/><stop offset="0.13105" stop-color="#b8b8b8"/><stop offset="0.13565" stop-color="#ababab"/><stop offset="0.14032" stop-color="#979797"/><stop offset="0.14505" stop-color="#7a7a7a"/><stop offset="0.14982" stop-color="#545454"/><stop offset="0.15456" stop-color="#272727"/><stop offset="0.15696" stop-color="#0d0d0d"/><stop offset="0.15886" stop-color="#111"/><stop offset="0.16081" stop-color="#1d1d1d"/><stop offset="0.16279" stop-color="#323232"/><stop offset="0.16477" stop-color="#4f4f4f"/><stop offset="0.16678" stop-color="#747474"/><stop offset="0.16879" stop-color="#a1a1a1"/><stop offset="0.17077" stop-color="#d6d6d6"/><stop offset="0.17214" stop-color="#fff"/><stop offset="0.17251" stop-color="#f8f8f8"/><stop offset="0.17648" stop-color="#b0b0b0"/><stop offset="0.18022" stop-color="#737373"/><stop offset="0.18361" stop-color="#444"/><stop offset="0.18659" stop-color="#222"/><stop offset="0.18905" stop-color="#0d0d0d"/><stop offset="0.19069" stop-color="#060606"/><stop offset="0.28319" stop-color="#080808"/><stop offset="0.3165" stop-color="#0f0f0f"/><stop offset="0.34025" stop-color="#1a1a1a"/><stop offset="0.35946" stop-color="#2b2b2b"/><stop offset="0.37591" stop-color="#414141"/><stop offset="0.39047" stop-color="#5d5d5d"/><stop offset="0.40358" stop-color="#7d7d7d"/><stop offset="0.4153" stop-color="#a1a1a1"/><stop offset="0.41673" stop-color="#a6a6a6"/><stop offset="0.41848" stop-color="#9d9d9d"/><stop offset="0.42133" stop-color="#858585"/><stop offset="0.42491" stop-color="#5e5e5e"/><stop offset="0.42905" stop-color="#282828"/><stop offset="0.4318"/><stop offset="0.44842" stop-color="#030303"/><stop offset="0.46196" stop-color="#0d0d0d"/><stop offset="0.47443" stop-color="#1e1e1e"/><stop offset="0.48626" stop-color="#363636"/><stop offset="0.49762" stop-color="#565656"/><stop offset="0.5085" stop-color="#7b7b7b"/><stop offset="0.51104" stop-color="#858585"/><stop offset="0.51396" stop-color="#8c8c8c"/><stop offset="0.51836" stop-color="#a1a1a1"/><stop offset="0.5237" stop-color="#c3c3c3"/><stop offset="0.52972" stop-color="#f2f2f2"/><stop offset="0.53128" stop-color="#fff"/><stop offset="0.54055"/><stop offset="0.57492" stop-color="#020202"/><stop offset="0.5873" stop-color="#090909"/><stop offset="0.59612" stop-color="#141414"/><stop offset="0.60325" stop-color="#252525"/><stop offset="0.60936" stop-color="#3b3b3b"/><stop offset="0.61468" stop-color="#565656"/><stop offset="0.61727" stop-color="#666"/><stop offset="0.64816" stop-color="#030303"/><stop offset="0.64888" stop-color="#010101"/><stop offset="0.68808"/><stop offset="0.6891" stop-color="#0d0d0d"/><stop offset="0.69163" stop-color="#282828"/><stop offset="0.69453" stop-color="#3e3e3e"/><stop offset="0.69792" stop-color="#4f4f4f"/><stop offset="0.70212" stop-color="#5a5a5a"/><stop offset="0.708" stop-color="#616161"/><stop offset="0.72434" stop-color="#636363"/><stop offset="0.72941" stop-color="#666"/><stop offset="0.73254" stop-color="#6e6e6e"/><stop offset="0.73513" stop-color="#7d7d7d"/><stop offset="0.73744" stop-color="#919191"/><stop offset="0.73955" stop-color="#acacac"/><stop offset="0.7415" stop-color="#ccc"/><stop offset="0.74204" stop-color="#d6d6d6"/><stop offset="0.74341" stop-color="#bbb"/><stop offset="0.74636" stop-color="#757575"/><stop offset="0.75065" stop-color="#070707"/><stop offset="0.75089"/><stop offset="0.95069" stop-color="#151515"/><stop offset="0.95786" stop-color="#fff"/><stop offset="0.97472"/></linearGradient><linearGradient id="linear-gradient-8" x1="85.81738" y1="39.73022" x2="125.51318" y2="39.73022" gradientUnits="userSpaceOnUse"><stop offset="0.25252" stop-color="#1287fc"/><stop offset="0.25784" stop-color="#1a8bfc"/><stop offset="0.26611" stop-color="#3096fc"/><stop offset="0.2763" stop-color="#54a8fd"/><stop offset="0.28802" stop-color="#86c2fd"/><stop offset="0.30084" stop-color="#c5e2fe"/><stop offset="0.31149" stop-color="#fff"/><stop offset="0.31296" stop-color="#d9ecfe"/><stop offset="0.36013" stop-color="#0781fc"/><stop offset="0.51344" stop-color="#037ffc"/><stop offset="0.71833" stop-color="#badcfe"/><stop offset="0.79351" stop-color="#037ffc"/></linearGradient><radialGradient id="radial-gradient" cx="263.37324" cy="105.29023" r="5.79187" gradientUnits="userSpaceOnUse"><stop offset="0" stop-color="#fff"/><stop offset="0.11159" stop-color="#fdfefe"/><stop offset="0.15703" stop-color="#f6f9fc"/><stop offset="0.19043" stop-color="#eaf1f7"/><stop offset="0.21795" stop-color="#d8e5f1"/><stop offset="0.24184" stop-color="#c1d5e9"/><stop offset="0.26285" stop-color="#a6c3df"/><stop offset="0.2784" stop-color="#8cb1d6"/><stop offset="0.38833" stop-color="#89afd5"/><stop offset="0.47732" stop-color="#7fa8d1"/><stop offset="0.55874" stop-color="#6e9ccb"/><stop offset="0.60651" stop-color="#6093c6"/><stop offset="0.76773" stop-color="#6294c7"/><stop offset="0.8258" stop-color="#6999c9"/><stop offset="0.8672" stop-color="#74a1cd"/><stop offset="0.90067" stop-color="#85acd3"/><stop offset="0.92935" stop-color="#9bbbdb"/><stop offset="0.95475" stop-color="#b7cee5"/><stop offset="0.97738" stop-color="#d6e3f0"/><stop offset="0.99781" stop-color="#fbfcfd"/><stop offset="1" stop-color="#fff"/></radialGradient></defs><g class="cls-1"><text class="cls-2" transform="translate(0.45697 76.10852)">en<tspan class="cls-3" x="41.23242" y="0" xml:space="preserve">   </tspan><tspan x="60.36182" y="0">ision</tspan></text><path class="cls-4" d="M70.00977,54.18994,69.769,55.42725q-5.1123,3.56909-8.71289,3.56884A4.72483,4.72483,0,0,1,57.35107,57.398a5.98541,5.98541,0,0,1-1.42285-4.13574,12.78869,12.78869,0,0,1,3.47217-8.52q3.47241-3.991,7.41065-3.99121a2.99625,2.99625,0,0,1,2.31494.96338,3.55945,3.55945,0,0,1,.88379,2.5039q0,3.082-3.15039,5.29688a12.74317,12.74317,0,0,1-7.523,2.21533l-.01612.72314q0,4.6941,3.43994,4.69385Q65.73389,57.14746,70.00977,54.18994ZM59.36816,50.74951a10.41071,10.41071,0,0,0,5.62647-1.85644A4.902,4.902,0,0,0,67.02,44.834q0-2.45946-1.78418-2.45947-1.92919,0-3.72949,2.564A12.11834,12.11834,0,0,0,59.36816,50.74951Z" transform="translate(-52.24023 17.51416)"/><path class="cls-4" d="M74.84863,58.78711l1.18946-4.95117L77.61328,45.895a16.18834,16.18834,0,0,0,.37012-2.41113q0-.99683-.94873-.99659-1.57543,0-4.79,3.53321l.28906-1.477Q76.03833,40.751,78.85107,40.751q2.31519,0,2.31495,2.41113a16.62976,16.62976,0,0,1-.36963,2.73291l-.7876,3.9707h.24072A24.00235,24.00235,0,0,1,84.791,43.251q2.53125-2.49976,4.71777-2.5,2.636,0,2.63623,2.92578a12.13438,12.13438,0,0,1-.273,2.31494L90.3125,53.83594a16.59178,16.59178,0,0,0-.36963,2.41113q0,1.01293.94824,1.01318,1.60767,0,4.80664-3.53271l-.30566,1.49316q-3.50464,3.77563-6.31738,3.77539-2.31445,0-2.31446-2.4248a16.17342,16.17342,0,0,1,.38575-2.73l1.55908-7.86865a7.71616,7.71616,0,0,0,.19287-1.54151q0-1.30079-.96436-1.30078-3.07031,0-8.51953,9.7251l-1.17383,5.73877Z" transform="translate(-52.24023 17.51416)"/><path class="cls-4" d="M127.30127,53.72363l-.28906,1.49512q-3.52075,3.77711-6.31739,3.77734-2.31518,0-2.31494-2.42724a16.0427,16.0427,0,0,1,.36963-2.70069l1.10938-5.59423a21.61864,21.61864,0,0,0,.45019-3.16651q0-1.35058-1.04492-1.3501a11.11555,11.11555,0,0,0-2.58838.54639l.19287-.98047,7.86084-2.57226-1.22168,5.144-1.57519,7.94092a16.77646,16.77646,0,0,0-.37012,2.37939q0,1.04517.94873,1.04492Q124.10279,57.26025,127.30127,53.72363ZM121.40186,37.9541l1.07714-2.186,4.53321-2.958-1.38233,2.958Z" transform="translate(-52.24023 17.51416)"/><path class="cls-4" d="M126.562,58.04785l2.12158-2.17041a7.13042,7.13042,0,0,0,4.25049,1.52735,3.5914,3.5914,0,0,0,2.2461-.69922,2.1055,2.1055,0,0,0,.91406-1.728q0-1.14111-1.81641-3.11865l-1.46289-1.60743q-2.13794-2.34667-2.13818-3.92236a4.94394,4.94394,0,0,1,2.07373-3.88232,7.28366,7.28366,0,0,1,4.74219-1.6958,10.403,10.403,0,0,1,3.27929.61084l-.707,3.55273h-1.02881l.04785-.27344a1.56339,1.56339,0,0,0,.03223-.3374q0-2.17017-2.78955-2.17041-3.126,0-3.126,2.50781,0,1.27,1.86475,3.376L136.38379,49.48q2.15333,2.42724,2.15381,3.98633a4.78364,4.78364,0,0,1-2.28272,3.8418,8.50776,8.50776,0,0,1-5.19189,1.688A12.62587,12.62587,0,0,1,126.562,58.04785Z" transform="translate(-52.24023 17.51416)"/><path class="cls-4" d="M154.54785,53.72363l-.28906,1.49512q-3.52076,3.77711-6.31738,3.77734-2.31519,0-2.31495-2.42724a16.0427,16.0427,0,0,1,.36963-2.70069l1.10938-5.59423a21.61864,21.61864,0,0,0,.45019-3.16651q0-1.35058-1.04492-1.3501a11.11555,11.11555,0,0,0-2.58838.54639l.19287-.98047,7.86084-2.57226-1.22168,5.144-1.57519,7.94092a16.77646,16.77646,0,0,0-.37012,2.37939q0,1.04517.94873,1.04492Q151.34937,57.26025,154.54785,53.72363ZM148.64844,37.9541l1.07715-2.186,4.5332-2.958-1.38233,2.958Z" transform="translate(-52.24023 17.51416)"/><path class="cls-4" d="M160.84912,58.99609a4.42949,4.42949,0,0,1-3.51221-1.64746,6.10481,6.10481,0,0,1-1.40673-4.10742,12.61506,12.61506,0,0,1,3.50439-8.55957q3.50391-3.9309,7.63574-3.93066a4.73637,4.73637,0,0,1,3.68115,1.60742,5.89684,5.89684,0,0,1,1.44678,4.09912,12.591,12.591,0,0,1-3.50439,8.67236A10.418,10.418,0,0,1,160.84912,58.99609Zm1.83252-1.39843q2.37891,0,4.1875-3.0625a13.726,13.726,0,0,0,1.80859-7.1128q0-5.321-3.24707-5.3208-2.29906,0-4.13964,3.15869a13.86365,13.86365,0,0,0-1.84034,7.1128Q159.45068,57.59815,162.68164,57.59766Z" transform="translate(-52.24023 17.51416)"/><path class="cls-4" d="M176.20068,58.78711l1.18946-4.95117,1.57519-7.94092a16.18834,16.18834,0,0,0,.37012-2.41113q0-.99683-.94873-.99659-1.57543,0-4.79,3.53321l.28906-1.477q3.50465-3.79248,6.31738-3.79248,2.31519,0,2.31495,2.41113a16.62976,16.62976,0,0,1-.36963,2.73291l-.7876,3.9707h.24072a24.00235,24.00235,0,0,1,4.54151-6.61474q2.53125-2.49976,4.71777-2.5,2.636,0,2.63623,2.92578a12.13438,12.13438,0,0,1-.273,2.31494l-1.55957,7.84424a16.59178,16.59178,0,0,0-.36963,2.41113q0,1.01293.94824,1.01318,1.60767,0,4.80664-3.53271l-.30566,1.49316q-3.50464,3.77563-6.31738,3.77539-2.31446,0-2.31446-2.4248a16.17342,16.17342,0,0,1,.38575-2.73l1.55908-7.86865a7.71616,7.71616,0,0,0,.19287-1.54151q0-1.30079-.96436-1.30078-3.07031,0-8.51953,9.7251l-1.17382,5.73877Z" transform="translate(-52.24023 17.51416)"/></g><g class="cls-5"><text class="cls-6" transform="translate(34.20208 76.2218)"><tspan xml:space="preserve">v  </tspan></text><path class="cls-7" d="M85.81738,20.75293h17.3252v.98242a8.02708,8.02708,0,0,0-2.6792.8916,3.11416,3.11416,0,0,0-1.4292,2.855A10.70843,10.70843,0,0,0,99.479,28.2915q.44312,1.60548,1.64405,4.68311l7.19922,18.32959,7.27832-19.08838a20.07983,20.07983,0,0,0,1.60742-6.28809,3.78762,3.78762,0,0,0-1.38428-3.25634,7.18074,7.18074,0,0,0-2.63428-.936v-.98242h12.32373v.98242a8.06549,8.06549,0,0,0-4.01855,2.23q-1.92041,2.00683-4.42041,8.4292l-10.31494,26.313h-2.41114l-11.208-27.65088q-2.58985-6.37793-3.70606-7.71582a3.98612,3.98612,0,0,0-1.38428-1.04834,9.33188,9.33188,0,0,0-2.23242-.55713Z" transform="translate(-52.24023 17.51416)"/></g><text class="cls-8" transform="translate(187.94867 80.35706)">San o</text><path class="cls-9" d="M318.86434,68.84q-.87194-1.96182-1.74385-3.92365l5.3042,1.01725a17.45674,17.45674,0,0,1-8.51548-7.105c-2.38354-4.15373-1.536-8.26251-1.55677-13.21918a179.68881,179.68881,0,0,1,1.55675-23.9016q-1.10763,2.574-2.21526,5.148l-2.21524-5.148a224.8195,224.8195,0,0,1-.58475,23.66564c-.41979,5.29266-1.00377,9.26958.98388,13.83732A21.44607,21.44607,0,0,0,318.86434,68.84Z" transform="translate(-52.24023 17.51416)"/><polygon class="cls-9" points="273.662 54.564 271.178 53.094 273.708 51.564 245.264 51.164 248.407 52.708 245.218 54.164 273.662 54.564"/><polygon class="cls-10" points="266.757 51.109 263.646 50.674 263.925 48.185 261.497 48.673 261.328 45.626 258.273 52.423 250.941 54.804 254.108 55.201 253.41 57.475 256.03 57.403 256.242 60.399 259.621 53.815 266.757 51.109"/><path class="cls-11" d="M308.19955,39.96021l.07916,1.05855,3.05572-5.444Q309.767,37.76751,308.19955,39.96021Z" transform="translate(-52.24023 17.51416)"/><path class="cls-11" d="M313.82017,31.06838l-.0475-.7561-2.7549,4.88445Q312.419,33.13257,313.82017,31.06838Z" transform="translate(-52.24023 17.51416)"/><path class="cls-11" d="M306.22046,37.7675l-.80748-.1361,5.494-2.32881Q308.5637,36.535,306.22046,37.7675Z" transform="translate(-52.24023 17.51416)"/><path class="cls-11" d="M316.03677,33.07963l.64913.121-5.25647,2.32881Z" transform="translate(-52.24023 17.51416)"/><text class="cls-12" transform="translate(349.41058 81.98303)">SunRise</text><path class="cls-13" d="M419.27662,47.75714c2.99336-2.86906,18.27072-16.91931,41.954-16.63265a60.58594,60.58594,0,0,1,39.71975,15.8879" transform="translate(-52.24023 17.51416)"/><polyline class="cls-13" points="407.513 46.007 410.939 23.913 412.823 46.007"/><polyline class="cls-13" points="427.96 49.612 438.956 30.145 432.929 51.484"/><polyline class="cls-13" points="391.679 48.866 381.355 29.034 386.65 50.567"/><polyline class="cls-13" points="444.575 57.7 461.582 43.187 448.599 61.163"/><polyline class="cls-13" points="372.329 57.334 354.803 43.452 368.434 60.942"/><path class="cls-14" d="M115.31749,93.28131a36.88231,36.88231,0,0,0,13.3567,18.64906,35.33677,35.33677,0,0,0,11.78932,5.48029" transform="translate(-52.24023 17.51416)"/><path class="cls-14" d="M112.92253,87.20316a36.88227,36.88227,0,0,0,15.27124,17.1166,35.33643,35.33643,0,0,0,12.307,4.19041" transform="translate(-52.24023 17.51416)"/><path class="cls-14" d="M111.84038,80.66952A36.88223,36.88223,0,0,0,128.1687,96.78085a35.33686,35.33686,0,0,0,12.54845,3.39969" transform="translate(-52.24023 17.51416)"/><path class="cls-14" d="M106.38866,89.40746c-2.23329,22.54271,3.30961,34.21122,9.17134,40.73953,4.49659,5.00794,10.09141,8.00526,12.23384,15.3585,2.354,8.07929-.97421,16.21958-4.22472,21.90963" transform="translate(-52.24023 17.51416)"/><path class="cls-14" d="M92.79121,101.692c.26575,22.6515,7.06136,33.63775,13.60712,39.48,5.02132,4.48164,10.9125,6.84384,13.85259,13.916,3.2304,7.7705.82,16.22811-1.78333,22.24185" transform="translate(-52.24023 17.51416)"/><path class="cls-14" d="M99.18862,96.60472c-1.05381,22.62854,5.09048,33.99188,11.28492,40.20539,4.75181,4.76645,10.49542,7.46771,13.01868,14.69913,2.7724,7.94543-.12643,16.24832-3.07556,22.10025" transform="translate(-52.24023 17.51416)"/><path class="cls-15" d="M121.87552,132.67161a15.13019,15.13019,0,0,1,1.8756-1.28636,15.57523,15.57523,0,0,1,5.73028-1.94444l1.02646,1.29082,1.29083-1.29082a13.85462,13.85462,0,0,1,7.15389,3,11.04833,11.04833,0,0,1-17.07706.23077Z" transform="translate(-52.24023 17.51416)"/><text class="cls-16" transform="translate(42.22406 215.26721)">D<tspan class="cls-17" x="18.3667" y="0">i</tspan><tspan class="cls-18" x="24.44385" y="0">v</tspan><tspan x="32.77246" y="0">as</tspan></text><circle class="cls-19" cx="256.70754" cy="110.40907" r="8.23506"/><circle class="cls-20" cx="261.6256" cy="110.40907" r="8.23506"/><text class="cls-21" transform="translate(206.20745 118.97132)"><tspan xml:space="preserve">  anto     elo</tspan></text><text x="-52.24023" y="17.51416"/><path class="cls-22" d="M243.77954,106.78791a101.14888,101.14888,0,0,1,17.98577,3.39353,102.48614,102.48614,0,0,1,31.55993,15.27094h-4.01177l1.28544,3.0077A102.48626,102.48626,0,0,0,259.039,113.18915a101.14791,101.14791,0,0,0-17.98577-3.39354l3.019-.98931Z" transform="translate(-52.24023 17.51416)"/><path class="cls-22" d="M261.22736,124.323a200.39354,200.39354,0,0,1,71.30085-17.52772q4.99829-.2636,9.8125-.2647l-3.48257-.87176,1.18935-2.34848q-4.81263.00614-9.8125.2647a200.39349,200.39349,0,0,0-71.30085,17.52772l2.819.76395Z" transform="translate(-52.24023 17.51416)"/><text class="cls-23" transform="translate(192.00482 119.85364)">S</text><text class="cls-24" transform="translate(259.27093 118.74036) scale(1.40566 1)">1</text><polygon class="cls-25" points="267.871 105.29 263.695 105.612 263.373 109.788 263.051 105.612 258.875 105.29 263.051 104.968 263.373 100.792 263.695 104.968 267.871 105.29"/><path class="cls-26" d="M275.221,116.74113c-.28018,1.00105-2.03389,1.29362-3.43244,1.52694-1.60622.268-2.90322.48434-3.51585-.22173-.64095-.73871-.01747-2.2613,1.22951-5.30649.38888-.94966.60175-1.32508.98114-1.42006.24869-.06226.77247-.055,2.84065,2.39605C274.69752,115.34365,275.381,116.16922,275.221,116.74113Z" transform="translate(-52.24023 17.51416)"/><path class="cls-26" d="M275.04049,116.96175c.08161,1.03631,1.74582,1.662,3.073,2.161,1.52425.57308,2.75506,1.03582,3.4925.46134.77152-.601.45378-2.21537-.18172-5.444-.19819-1.00688-.33456-1.41635-.68848-1.5828-.232-.1091-.7473-.2031-3.24984,1.80245C275.82393,115.69164,274.99388,116.3697,275.04049,116.96175Z" transform="translate(-52.24023 17.51416)"/><path class="cls-27" d="M229.6037,169.60541a107.23764,107.23764,0,0,1,69.47063,5.19024c3.09092,1.35556,6.12971,2.82639,9.06984,4.47109a124.34738,124.34738,0,0,0-78.54047-9.66133Z" transform="translate(-52.24023 17.51416)"/><path class="cls-27" d="M277.43124,179.45207c15.10512-14.95787,37.68282-23.7019,58.82349-18.533a67.25826,67.25826,0,0,0-7.94736-.80257c-18.773-.94951-36.83829,7.27686-50.87613,19.33555Z" transform="translate(-52.24023 17.51416)"/><path class="cls-27" d="M266.15939,165.26215a112.12844,112.12844,0,0,1,11.54453-6.27532c2.91012,1.44462,5.79275,2.94933,8.59222,4.60383.89234.55846,1.80393,1.07777,2.6789,1.67149-1.00418-.33121-1.97171-.73687-2.95856-1.10334-2.92005-1.17061-5.77809-2.4858-8.60373-3.86246l.56924.00262a110.34567,110.34567,0,0,1-11.8226,4.96318Z" transform="translate(-52.24023 17.51416)"/><path class="cls-27" d="M263.16635,157.78946a112.12674,112.12674,0,0,1,11.54455-6.27533c2.91009,1.44465,5.79276,2.94932,8.5922,4.60384.89233.55847,1.80393,1.07775,2.67889,1.67149-1.00418-.33122-1.97171-.73688-2.95852-1.10335-2.92009-1.17062-5.77813-2.48578-8.60376-3.86246l.56924.00261a110.34225,110.34225,0,0,1-11.8226,4.9632Z" transform="translate(-52.24023 17.51416)"/><path class="cls-27" d="M245.31078,163.33916a112.12635,112.12635,0,0,1,11.54453-6.27532c2.91009,1.44465,5.79276,2.94932,8.5922,4.60383.89233.55847,1.80392,1.07777,2.67889,1.67149-1.00418-.33121-1.97171-.73687-2.95852-1.10334-2.92009-1.17061-5.77813-2.4858-8.60376-3.86246l.56924.00262a110.34213,110.34213,0,0,1-11.82258,4.96318Z" transform="translate(-52.24023 17.51416)"/><path class="cls-27" d="M303.707,147.91411c-.467-4.93692-.59735-9.89782-.62626-14.85335,3.1068-.02155,6.21472.01068,9.32115.1229l.48379.01737c-.08544,2.69064-.22983,5.37822-.48369,8.05994-.24011-2.5319-.38076-5.06815-.46926-7.60794l.46916.46916c-2.9072.10442-5.81437.141-8.72156.126l.59515-.59626c-.01708,4.75791-.13828,9.52053-.56848,14.26219Z" transform="translate(-52.24023 17.51416)"/><path class="cls-27" d="M299.43964,164.0665c-.467-4.9369-.59741-9.89784-.62626-14.85335,3.10679-.02155,6.21472.01068,9.32114.1229l.4838.01737c-.08547,2.69063-.22983,5.37821-.48369,8.05993-.24014-2.53189-.38075-5.06815-.4693-7.60793l.46919.46916c-2.90719.10442-5.81436.141-8.72156.126l.59516-.59628c-.01707,4.75795-.13831,9.52052-.56848,14.26221Z" transform="translate(-52.24023 17.51416)"/><path class="cls-27" d="M311.02164,157.79291c-.467-4.93692-.59736-9.89782-.62626-14.85335,3.1068-.02155,6.21472.01068,9.32114.1229l.4838.01737c-.08547,2.69064-.22983,5.37822-.48369,8.05994-.24012-2.5319-.38076-5.06815-.46927-7.60794l.46916.46916c-2.90719.10442-5.81436.141-8.72156.126l.59516-.59626c-.01708,4.75791-.13829,9.52053-.56848,14.26219Z" transform="translate(-52.24023 17.51416)"/><path class="cls-27" d="M243.32812,197.25684V186.541h6.46729v1.15136H244.626v3.62012h4.83447v1.15137H244.626v3.6416h5.25341v1.15137Z" transform="translate(-52.24023 17.51416)"/><path class="cls-27" d="M257.66455,191.01953l-1.10889.31445a2.16321,2.16321,0,0,0-.30615-.542,1.54266,1.54266,0,0,0-.54687-.43652,1.97479,1.97479,0,0,0-.88428-.17285,2.10747,2.10747,0,0,0-1.22705.33789,1.006,1.006,0,0,0-.48926.85547.88239.88239,0,0,0,.335.72754,2.79386,2.79386,0,0,0,1.04639.44433l1.19287.293a3.31249,3.31249,0,0,1,1.60644.79785,1.88258,1.88258,0,0,1,.52833,1.37891,2.04588,2.04588,0,0,1-.395,1.23437,2.64985,2.64985,0,0,1-1.10108.8584,4.01943,4.01943,0,0,1-1.64306.31348,3.61692,3.61692,0,0,1-2.03565-.53321,2.36683,2.36683,0,0,1-1.02-1.55957l1.17188-.293a1.62844,1.62844,0,0,0,.63574.97363,2.11593,2.11593,0,0,0,1.227.32422,2.29716,2.29716,0,0,0,1.37353-.36914,1.07471,1.07471,0,0,0,.51026-.88672.94047.94047,0,0,0-.293-.70313,1.882,1.882,0,0,0-.90039-.42675l-1.33936-.31446a3.15792,3.15792,0,0,1-1.61914-.81347,1.94844,1.94844,0,0,1-.51562-1.38379,1.97853,1.97853,0,0,1,.38476-1.20313,2.57247,2.57247,0,0,1,1.05176-.82129,3.6685,3.6685,0,0,1,1.51465-.29883,3.01513,3.01513,0,0,1,1.87549.52344A2.82662,2.82662,0,0,1,257.66455,191.01953Z" transform="translate(-52.24023 17.51416)"/><path class="cls-27" d="M263.169,189.21973v1.04687h-4.165v-1.04687Zm-2.95118-1.92481h1.23487v7.66016a1.56262,1.56262,0,0,0,.15429.78222.7602.7602,0,0,0,.39746.34473,1.53046,1.53046,0,0,0,.51563.08692,1.85277,1.85277,0,0,0,.335-.02442c.08691-.01562.15674-.02832.209-.03906l.25147,1.10937a2.77142,2.77142,0,0,1-.35059.09668,2.70759,2.70759,0,0,1-.57031.04981,2.47516,2.47516,0,0,1-1.02295-.22461,2.01966,2.01966,0,0,1-.82666-.68555,1.95568,1.95568,0,0,1-.32715-1.16211Z" transform="translate(-52.24023 17.51416)"/><path class="cls-27" d="M267.39648,197.44531a3.24455,3.24455,0,0,1-1.38671-.29,2.28076,2.28076,0,0,1-1.355-2.17968,2.07506,2.07506,0,0,1,.272-1.12207,1.927,1.927,0,0,1,.72754-.67774,3.87764,3.87764,0,0,1,1.00732-.36914q.55152-.123,1.11182-.19629.73242-.09375,1.18994-.14355a1.826,1.826,0,0,0,.66992-.16992.441.441,0,0,0,.21191-.41895v-.042a1.64544,1.64544,0,0,0-.42138-1.20313,1.71183,1.71183,0,0,0-1.27393-.42871,2.22366,2.22366,0,0,0-1.38672.38672,2.28762,2.28762,0,0,0-.70605.82715l-1.17188-.41895a2.82585,2.82585,0,0,1,.83936-1.14355,3.16231,3.16231,0,0,1,1.15137-.5752,4.79808,4.79808,0,0,1,1.23193-.165A5.117,5.117,0,0,1,269,189.207a2.89961,2.89961,0,0,1,.97852.374,2.19315,2.19315,0,0,1,.78759.85254,3.17336,3.17336,0,0,1,.314,1.52832v5.29493h-1.23487V196.169h-.063a2.18442,2.18442,0,0,1-.41846.55957,2.42752,2.42752,0,0,1-.7793.50781A3.022,3.022,0,0,1,267.39648,197.44531Zm.18848-1.10937a2.45818,2.45818,0,0,0,1.23731-.28809,1.98644,1.98644,0,0,0,.76416-.74219,1.91306,1.91306,0,0,0,.25878-.958v-1.12989a.72525.72525,0,0,1-.34277.16993,5.25675,5.25675,0,0,1-.60693.13085q-.34278.05421-.66455.09375c-.21436.02637-.38819.04786-.52051.06543a4.78295,4.78295,0,0,0-.89746.20215,1.55015,1.55015,0,0,0-.66944.41309,1.05349,1.05349,0,0,0-.2539.74512,1.09842,1.09842,0,0,0,.47851.9707A2.11424,2.11424,0,0,0,267.585,196.33594Z" transform="translate(-52.24023 17.51416)"/><path class="cls-27" d="M276.83545,189.21973v1.04687h-4.165v-1.04687Zm-2.95117-1.92481h1.23486v7.66016a1.5625,1.5625,0,0,0,.1543.78222.76013.76013,0,0,0,.39746.34473,1.5304,1.5304,0,0,0,.51562.08692,1.85277,1.85277,0,0,0,.335-.02442c.08692-.01562.15674-.02832.209-.03906l.25146,1.10937a2.77167,2.77167,0,0,1-.35058.09668,2.70759,2.70759,0,0,1-.57031.04981,2.4751,2.4751,0,0,1-1.02295-.22461,2.0196,2.0196,0,0,1-.82666-.68555,1.95561,1.95561,0,0,1-.32715-1.16211Z" transform="translate(-52.24023 17.51416)"/><path class="cls-27" d="M281.9834,197.42383a3.74831,3.74831,0,0,1-2.00049-.51465,3.39922,3.39922,0,0,1-1.29248-1.44434,4.88555,4.88555,0,0,1-.45264-2.16406,4.98708,4.98708,0,0,1,.45264-2.17871,3.54745,3.54745,0,0,1,1.26611-1.47559,3.405,3.405,0,0,1,1.90186-.53125,3.80717,3.80717,0,0,1,1.24023.21,3.08384,3.08384,0,0,1,1.11426.67675,3.2853,3.2853,0,0,1,.80078,1.23731,5.28321,5.28321,0,0,1,.29785,1.89453v.52344H279.1167v-1.06739h4.939a2.65552,2.65552,0,0,0-.26953-1.21386,2.06935,2.06935,0,0,0-.76367-.84278,2.15162,2.15162,0,0,0-1.16406-.30859,2.21555,2.21555,0,0,0-1.27393.36328,2.42728,2.42728,0,0,0-.82422.94531,2.76293,2.76293,0,0,0-.28759,1.24512v.71094a3.40711,3.40711,0,0,0,.3164,1.541,2.22378,2.22378,0,0,0,.88184.958,2.57439,2.57439,0,0,0,1.3125.32715,2.66067,2.66067,0,0,0,.88183-.13867,1.83841,1.83841,0,0,0,.68262-.41895,1.86562,1.86562,0,0,0,.44531-.69824l1.19239.335a2.61687,2.61687,0,0,1-.63282,1.06445,3.03422,3.03422,0,0,1-1.09863.71192A4.04023,4.04023,0,0,1,281.9834,197.42383Z" transform="translate(-52.24023 17.51416)"/><path class="cls-27" d="M293.45312,197.25684,290.52344,186.541h1.31836l2.23925,8.72753h.1045l2.28125-8.72753h1.46484l2.28125,8.72753h.10547l2.23926-8.72753H303.876l-2.92969,10.71582h-1.33984l-2.36524-8.53907h-.084l-2.36426,8.53907Z" transform="translate(-52.24023 17.51416)"/><path class="cls-27" d="M307.83105,197.42383a3.39488,3.39488,0,0,1-3.18359-1.9668,4.87413,4.87413,0,0,1-.458-2.17676,4.93457,4.93457,0,0,1,.458-2.19238,3.52182,3.52182,0,0,1,6.36719,0,4.94792,4.94792,0,0,1,.459,2.19238,4.88735,4.88735,0,0,1-.459,2.17676,3.39226,3.39226,0,0,1-3.1836,1.9668Zm0-1.1084a2.12834,2.12834,0,0,0,1.36133-.42383,2.49481,2.49481,0,0,0,.78907-1.11523,4.24172,4.24172,0,0,0,.25585-1.4961,4.29,4.29,0,0,0-.25585-1.50195,2.52492,2.52492,0,0,0-.78907-1.125,2.37263,2.37263,0,0,0-2.7207,0,2.52092,2.52092,0,0,0-.791,1.125,4.31257,4.31257,0,0,0-.25586,1.50195,4.26393,4.26393,0,0,0,.25586,1.4961,2.491,2.491,0,0,0,.791,1.11523A2.11894,2.11894,0,0,0,307.83105,196.31543Z" transform="translate(-52.24023 17.51416)"/><path class="cls-27" d="M313.35645,197.25684v-8.03711h1.19335v1.21386h.084a1.93061,1.93061,0,0,1,.79492-.96777,2.34634,2.34634,0,0,1,1.29785-.37109c.09082,0,.2041.00195.33985.00488.13574.00391.23925.00879.30859.01562v1.25586c-.042-.01074-.13672-.02734-.28516-.0498a3.12747,3.12747,0,0,0-.46777-.03418,2.19017,2.19017,0,0,0-1.04395.24316,1.86747,1.86747,0,0,0-.72265.66993,1.80882,1.80882,0,0,0-.26367.9707v5.08594Z" transform="translate(-52.24023 17.51416)"/><path class="cls-27" d="M320.0752,186.541v10.71582h-1.23536V186.541Z" transform="translate(-52.24023 17.51416)"/><path class="cls-27" d="M325.37012,197.42383a3.13485,3.13485,0,0,1-1.77344-.50977,3.40127,3.40127,0,0,1-1.2041-1.44433,5.81879,5.81879,0,0,1,0-4.40821,3.37922,3.37922,0,0,1,1.209-1.43847,3.18346,3.18346,0,0,1,1.78906-.50782,2.54036,2.54036,0,0,1,1.24317.25879,2.225,2.225,0,0,1,.70117.58594q.24316.32813.37891.53711h.10449V186.541h1.23535v10.71582h-1.19336v-1.23438h-.14648q-.13623.21973-.38672.55176a2.2558,2.2558,0,0,1-.7168.59082A2.55067,2.55067,0,0,1,325.37012,197.42383Zm.167-1.1084a2.01009,2.01009,0,0,0,1.25586-.39063,2.40033,2.40033,0,0,0,.7793-1.083,4.42549,4.42549,0,0,0,.26757-1.60352,4.37513,4.37513,0,0,0-.26172-1.57715,2.31054,2.31054,0,0,0-.77441-1.05664,2.31384,2.31384,0,0,0-2.57129.02051,2.40218,2.40218,0,0,0-.78027,1.083,4.28491,4.28491,0,0,0-.25879,1.53027,4.3567,4.3567,0,0,0,.26465,1.55664,2.49951,2.49951,0,0,0,.78418,1.10938A2.03059,2.03059,0,0,0,325.53711,196.31543Z" transform="translate(-52.24023 17.51416)"/><path class="cls-28" d="M420.42871,91.60742h3.165v10.918h.07227a6.25652,6.25652,0,0,1,2.2871-2.24609,6.39732,6.39732,0,0,1,3.25684-.88282c2.35742,0,6.09473,1.4375,6.09473,7.47168v10.415h-3.16407V107.21582c0-2.82324-1.0664-5.19287-4.043-5.19287a4.626,4.626,0,0,0-4.291,3.17432,4.29805,4.29805,0,0,0-.21289,1.51562V117.2832h-3.165Z" transform="translate(-52.24023 17.51416)"/><path class="cls-28" d="M450.19336,117.2832l-.28027-2.209h-.09571a6.504,6.504,0,0,1-5.35058,2.60693,4.98927,4.98927,0,0,1-5.3418-5.01855c0-4.23633,3.75391-6.563,10.51074-6.51514v-.37158c0-1.42139-.39941-4.05371-3.98242-4.03467a8.50941,8.50941,0,0,0-4.55566,1.30371l-.72266-2.11523a11.00458,11.00458,0,0,1,5.77246-1.53321c5.34668,0,6.65039,3.65479,6.65039,7.15821v6.54345a27.32437,27.32437,0,0,0,.26367,4.18506Zm-.49512-8.93066c-3.4414-.07275-7.38281.54541-7.38281,3.92725a2.80058,2.80058,0,0,0,2.96973,3.04541,4.378,4.378,0,0,0,4.26172-2.92872,3.30283,3.30283,0,0,0,.15136-1.00146Z" transform="translate(-52.24023 17.51416)"/><path class="cls-28" d="M457.918,105.24121c0-2.06494-.05176-3.82519-.14551-5.44678h2.78809l.12109,3.43067h.11328a5.308,5.308,0,0,1,4.87012-3.82862,3.61767,3.61767,0,0,1,.88476.08936v2.9917a5.08129,5.08129,0,0,0-1.082-.09229c-2.24218,0-3.82519,1.68946-4.25781,4.06885a8.45,8.45,0,0,0-.12793,1.48535v9.34375H457.918Z" transform="translate(-52.24023 17.51416)"/><path class="cls-28" d="M471.165,109.11279c.0625,4.29932,2.792,6.07227,5.98535,6.07227a11.77154,11.77154,0,0,0,4.84473-.896l.55664,2.25928a14.104,14.104,0,0,1-5.835,1.11475c-5.374,0-8.60547-3.58008-8.60547-8.82715,0-5.3003,3.12207-9.43946,8.22949-9.43946,5.70508,0,7.19727,5.00586,7.19727,8.22559a7.78233,7.78233,0,0,1-.1084,1.49072Zm9.30957-2.28759c.03125-2.0044-.82031-5.14893-4.38672-5.14893-3.24707,0-4.62988,2.93506-4.88379,5.14893Z" transform="translate(-52.24023 17.51416)"/><path class="cls-29" d="M508.65128,92.04194H505.487v17.59743l3.20835,1.45847Q508.67332,101.56989,508.65128,92.04194Z" transform="translate(-52.24023 17.51416)"/><path class="cls-29" d="M513.82216,92.04194h-3.16428l.04992,19.46754,3.11017,1.46361Z" transform="translate(-52.24023 17.51416)"/><path class="cls-29" d="M484.6076,109.094l3.44318.02076q2.93534-6.75284,5.87069-13.50566l-1.73324-3.99833Q488.3979,100.35234,484.6076,109.094Z" transform="translate(-52.24023 17.51416)"/><path class="cls-29" d="M504.382,117.28292h-3.59774q-4.81975-10.084-9.6395-20.16791,1.03619-1.55208,2.07232-3.10416Q498.79949,105.64689,504.382,117.28292Z" transform="translate(-52.24023 17.51416)"/><path class="cls-30" d="M496.03263,109.11472h-7.19458l.89268-2.39411H494.924Z" transform="translate(-52.24023 17.51416)"/><path class="cls-31" d="M508.69534,117.28292v-5.66475q-1.60417-.72924-3.20835-1.45846l.01647,7.12321Z" transform="translate(-52.24023 17.51416)"/><path class="cls-31" d="M513.78169,117.28292l-.00945-3.684q-1.55507-.73184-3.11016-1.46362-.00051,2.57377-.001,5.14759Z" transform="translate(-52.24023 17.51416)"/><path class="cls-32" d="M404.41165,103.14965l10.04974,2.2336a11.80478,11.80478,0,0,0-4.764-2.98562c-3.364-1.29968-4.84632-2.41622-4.84632-4.67848,0-1.66056,1.26437-3.64433,4.61185-3.64433a9.25137,9.25137,0,0,1,4.60174,1.157l.8783-2.58006a11.1651,11.1651,0,0,0-5.37622-1.178c-4.74628,0-7.89979,2.81547-7.89979,6.609A6.00025,6.00025,0,0,0,404.41165,103.14965Z" transform="translate(-52.24023 17.51416)"/><path class="cls-28" d="M404.303,103.75148A13.32168,13.32168,0,0,0,408.604,106.073c3.28793,1.23071,4.60927,2.5624,4.60927,4.82184,0,2.468-1.89291,4.14928-5.11163,4.14928a10.96742,10.96742,0,0,1-5.62316-1.57911l-.82745,2.62549a12.48006,12.48006,0,0,0,6.22627,1.58971c5.77406,0,8.52809-3.28864,8.52809-7.0269a6.07908,6.07908,0,0,0-1.85776-4.62488Q409.4253,104.88991,404.303,103.75148Z" transform="translate(-52.24023 17.51416)"/><path class="cls-33" d="M423.80469,154.17383v8.29785h-2.57227v-21.9541h6.03223a7.96588,7.96588,0,0,1,5.458,1.71484,6.12332,6.12332,0,0,1,1.93652,4.83789,6.65417,6.65417,0,0,1-2.15137,5.11328,8.21517,8.21517,0,0,1-5.80957,1.99024Zm0-11.3291v9.00195H426.499a6.02164,6.02164,0,0,0,4.06446-1.2168,4.30762,4.30762,0,0,0,1.40136-3.4375q0-4.34765-5.14453-4.34765Z" transform="translate(-52.24023 17.51416)"/><path class="cls-33" d="M448.666,162.47168h-2.51075v-2.44922h-.06054a5.25721,5.25721,0,0,1-4.82227,2.81641,5.1529,5.1529,0,0,1-3.667-1.24024,4.2937,4.2937,0,0,1-1.32422-3.291q0-4.39453,5.1748-5.11328l4.69922-.65821q0-3.99609-3.22949-3.99609a7.715,7.715,0,0,0-5.11328,1.92871v-2.57129a9.70729,9.70729,0,0,1,5.32715-1.46973q5.52686,0,5.52637,5.84766Zm-2.51075-7.93066-3.78125.5205a6.15253,6.15253,0,0,0-2.63281.86524,2.49472,2.49472,0,0,0-.88769,2.19726,2.391,2.391,0,0,0,.81836,1.875,3.16256,3.16256,0,0,0,2.18164.72754,4.02949,4.02949,0,0,0,3.085-1.30957,4.67353,4.67353,0,0,0,1.21679-3.31445Z" transform="translate(-52.24023 17.51416)"/><path class="cls-33" d="M466.77734,161.21582q0,8.63526-8.26757,8.63477a11.10486,11.10486,0,0,1-5.082-1.10157v-2.51074a10.43836,10.43836,0,0,0,5.05176,1.46875q5.7876,0,5.78711-6.1543v-1.71386h-.06152a6.34335,6.34335,0,0,1-10.09668.91015,8.35326,8.35326,0,0,1-1.7832-5.61035,9.76229,9.76229,0,0,1,1.92089-6.35351,6.42065,6.42065,0,0,1,5.25879-2.35743,5.109,5.109,0,0,1,4.7002,2.541h.06152v-2.17383h2.51074Zm-2.51074-5.832v-2.3125a4.48439,4.48439,0,0,0-1.26269-3.19922,4.16186,4.16186,0,0,0-3.14649-1.332,4.36126,4.36126,0,0,0-3.64355,1.69141,7.55147,7.55147,0,0,0-1.31641,4.73828,6.48231,6.48231,0,0,0,1.2627,4.1875,4.08074,4.08074,0,0,0,3.34472,1.56933,4.37051,4.37051,0,0,0,3.4375-1.5A5.59393,5.59393,0,0,0,464.2666,155.38379Z" transform="translate(-52.24023 17.51416)"/><path class="cls-34" d="M483.66113,155.26074H472.59277a5.86884,5.86884,0,0,0,1.40821,4.042,4.857,4.857,0,0,0,3.70507,1.42383,7.70369,7.70369,0,0,0,4.86817-1.74511v2.35742a9.09882,9.09882,0,0,1-5.46484,1.5,6.6262,6.6262,0,0,1-5.22071-2.13575,8.741,8.741,0,0,1-1.89844-6.00878,8.57239,8.57239,0,0,1,2.07422-5.96289,6.65113,6.65113,0,0,1,5.15137-2.30372,5.89389,5.89389,0,0,1,4.76172,1.99024,8.29413,8.29413,0,0,1,1.68359,5.52637Zm-2.57129-2.12793A5.11106,5.11106,0,0,0,480.041,149.75a3.57316,3.57316,0,0,0-2.8711-1.21,4.05772,4.05772,0,0,0-3.01562,1.27051,5.77587,5.77587,0,0,0-1.53125,3.32226Z" transform="translate(-52.24023 17.51416)"/><path class="cls-34" d="M500.83887,162.47168h-2.51075v-2.66406h-.06152a5.79436,5.79436,0,0,1-5.38867,3.03125,5.85442,5.85442,0,0,1-4.72266-2.10449,8.63625,8.63625,0,0,1-1.76855-5.7334,9.39448,9.39448,0,0,1,1.96-6.23145,6.46043,6.46043,0,0,1,5.21973-2.3418,5.02511,5.02511,0,0,1,4.70019,2.541h.06152V139.2627h2.51075Zm-2.51075-7.08789v-2.3125a4.48684,4.48684,0,0,0-1.25585-3.21484,4.21284,4.21284,0,0,0-3.1836-1.31641,4.33524,4.33524,0,0,0-3.61328,1.68457,7.3759,7.3759,0,0,0-1.31641,4.65332,6.63848,6.63848,0,0,0,1.2627,4.2793,4.12866,4.12866,0,0,0,3.39062,1.56933,4.28928,4.28928,0,0,0,3.40723-1.51562A5.64948,5.64948,0,0,0,498.32812,155.38379Z" transform="translate(-52.24023 17.51416)"/><path d="M456.91363,199.94149,401.948,162.83971a41.49473,41.49473,0,0,1,4.26628.57711s2.00946.37887,4.05246.97714c3.00521.88,22.87432,13.1687,49.26243,31.43Z" transform="translate(-52.24023 17.51416)"/><path class="cls-35" d="M462.14476,199.94149l54.96561-37.10178a41.49451,41.49451,0,0,0-4.26629.57711s-2.00946.37887-4.05245.97714c-3.00522.88-22.87433,13.1687-49.26243,31.43Q460.837,197.8827,462.14476,199.94149Z" transform="translate(-52.24023 17.51416)"/><path class="cls-36" d="M457.61642,192.54629a20.64784,20.64784,0,0,0-4.14135-9.29c-4.13418-5.09838-9.78556-6.56773-13.991-7.835a145.91045,145.91045,0,0,1-26.6389-11.19281" transform="translate(-52.24023 17.51416)"/><path class="cls-36" d="M459.83961,189.65543a20.648,20.648,0,0,0-4.7293-9.005c-4.24953-4.60206-9.58225-5.70789-14.46521-6.92047a194.09256,194.09256,0,0,1-25.4903-8.31582" transform="translate(-52.24023 17.51416)"/><path class="cls-37" d="M461.89939,192.65822a20.648,20.648,0,0,1,4.14135-9.29c4.13419-5.09839,9.78556-6.56773,13.991-7.835a145.91016,145.91016,0,0,0,26.6389-11.19281" transform="translate(-52.24023 17.51416)"/><path class="cls-37" d="M459.71969,189.84719a20.648,20.648,0,0,1,4.69707-9.02182c4.233-4.61723,9.56178-5.74213,14.44037-6.97216a194.09063,194.09063,0,0,0,25.46039-8.40693" transform="translate(-52.24023 17.51416)"/></svg>