<?xml version="1.0" encoding="UTF-8"?><svg id="Layer_1" xmlns="http://www.w3.org/2000/svg" viewBox="0 0 246.11 416.29"><defs><style>.cls-1{letter-spacing:0em;}.cls-2{font-family:SageRegular, Sage;font-size:36.24px;}.cls-2,.cls-3{fill:#6dabdd;}.cls-4{fill:#d5dfe2;stroke:#d5dfe2;stroke-width:.58px;}.cls-4,.cls-5,.cls-6,.cls-7,.cls-8,.cls-9{stroke-miterlimit:10;}.cls-10{fill:#fff;}.cls-11,.cls-12{font-family:CenturyGothic, 'Century Gothic';font-size:52.16px;}.cls-5{stroke:#378ccb;}.cls-5,.cls-6,.cls-7,.cls-8,.cls-9{fill:none;}.cls-13{font-size:13.04px;}.cls-6{stroke:#2a3479;}.cls-6,.cls-7{stroke-width:.51px;}.cls-14{fill:#2c3279;}.cls-15{fill:#046938;}.cls-7{stroke:#010101;}.cls-16{fill:#2a2664;}.cls-17{letter-spacing:-.03em;}.cls-18{fill:#66bf6f;}.cls-19{fill:#2e2f7a;}.cls-20{font-family:MyriadConceptRoman-Regular, 'Myriad Variable Concept';font-size:36.16px;font-variation-settings:'wght' 400, 'wdth' 100;}.cls-20,.cls-21{fill:#292865;}.cls-22{opacity:.75;}.cls-23{fill:#959899;}.cls-24{letter-spacing:-.05em;}.cls-25{letter-spacing:0em;}.cls-26{font-family:LucidaCalligraphy-Italic, 'Lucida Calligraphy';}.cls-26,.cls-27{fill:#010101;}.cls-12{fill:#c9c9c9;}.cls-8{stroke:#f36f41;}.cls-28{fill:#4b8265;}.cls-9{stroke:#39b550;}.cls-29{fill:#69bf70;}.cls-30,.cls-31{fill:#50a3da;}.cls-32{fill:#231f20;}.cls-33{font-size:26.08px;}.cls-34{fill:#a6a6d3;}.cls-31{font-family:Inter-Regular, Inter;font-size:41.85px;font-variation-settings:'wght' 400, 'slnt' 0;}.cls-35{fill:#68bf6f;}</style></defs><rect class="cls-10" width="246.11" height="416.29"/><g><text class="cls-20" transform="translate(81.75 139.95)"><tspan x="0" y="0">ha</tspan><tspan class="cls-25" x="37.5" y="0">r</tspan><tspan x="48.96" y="0">e</tspan></text><path class="cls-16" d="M172.61,114.7h-3.16v17.6l3.21,1.46c-.01-6.35-.03-12.7-.04-19.06Z"/><path class="cls-16" d="M177.78,114.7h-3.16l.05,19.47,3.11,1.46v-20.93Z"/><path class="cls-16" d="M148.57,131.76l3.44,.02c1.96-4.5,3.91-9,5.87-13.51l-1.73-4c-2.53,5.83-5.05,11.66-7.58,17.48Z"/><path class="cls-16" d="M168.34,139.95h-3.6c-3.21-6.72-6.43-13.45-9.64-20.17,.69-1.03,1.38-2.07,2.07-3.1,3.72,7.76,7.44,15.51,11.16,23.27Z"/><path class="cls-18" d="M159.99,131.78h-7.19l.89-2.39h5.19l1.11,2.39Z"/><path class="cls-35" d="M172.66,139.95v-5.66c-1.07-.49-2.14-.97-3.21-1.46l.02,7.12h3.19Z"/><path class="cls-35" d="M177.74,139.95v-3.68c-1.05-.49-2.08-.98-3.12-1.46,0,1.72,0,3.43,0,5.15h3.12Z"/><path class="cls-29" d="M68.37,125.81l10.05,2.23c-1.04-1.21-2.62-2.15-4.76-2.99-3.36-1.3-4.85-2.42-4.85-4.68,0-1.66,1.26-3.64,4.61-3.64,2.19,0,3.83,.7,4.6,1.16l.88-2.58c-1.06-.6-2.9-1.18-5.38-1.18-4.75,0-7.9,2.82-7.9,6.61,0,2.17,1,3.8,2.74,5.07Z"/><path class="cls-21" d="M68.26,126.41c1.08,.94,2.55,1.7,4.3,2.32,3.29,1.23,4.61,2.56,4.61,4.82,0,2.47-1.89,4.15-5.11,4.15-2.16,0-4.22-.7-5.62-1.58l-.83,2.63c1.3,.88,3.87,1.59,6.23,1.59,5.77,0,8.53-3.29,8.53-7.03,0-1.95-.62-3.42-1.86-4.62-3.41-.76-6.83-1.52-10.24-2.28Z"/></g><g><g><path class="cls-32" d="M85.97,42.8v8.3h-2.57V29.15h6.03c2.35,0,4.17,.57,5.46,1.71,1.29,1.14,1.94,2.76,1.94,4.84s-.72,3.79-2.15,5.11c-1.43,1.33-3.37,1.99-5.81,1.99h-2.89Zm0-11.33v9h2.69c1.78,0,3.13-.41,4.06-1.22,.93-.81,1.4-1.96,1.4-3.44,0-2.9-1.71-4.35-5.14-4.35h-3.02Z"/><path class="cls-32" d="M110.84,51.1h-2.51v-2.45h-.06c-1.09,1.88-2.7,2.82-4.82,2.82-1.56,0-2.78-.41-3.67-1.24-.88-.83-1.32-1.92-1.32-3.29,0-2.93,1.72-4.63,5.17-5.11l4.7-.66c0-2.66-1.08-4-3.23-4-1.89,0-3.59,.64-5.11,1.93v-2.57c1.54-.98,3.32-1.47,5.33-1.47,3.68,0,5.53,1.95,5.53,5.85v10.2Zm-2.51-7.93l-3.78,.52c-1.16,.16-2.04,.45-2.63,.87s-.89,1.15-.89,2.2c0,.77,.27,1.39,.82,1.88,.55,.49,1.27,.73,2.18,.73,1.25,0,2.27-.44,3.08-1.31,.81-.87,1.22-1.98,1.22-3.31v-1.56Z"/><path class="cls-32" d="M128.95,49.85c0,5.76-2.76,8.63-8.27,8.63-1.94,0-3.63-.37-5.08-1.1v-2.51c1.77,.98,3.45,1.47,5.05,1.47,3.86,0,5.79-2.05,5.79-6.15v-1.71h-.06c-1.19,2-2.99,3-5.39,3-1.95,0-3.52-.7-4.71-2.09-1.19-1.39-1.78-3.26-1.78-5.61,0-2.66,.64-4.78,1.92-6.35,1.28-1.57,3.03-2.36,5.26-2.36s3.68,.85,4.7,2.54h.06v-2.17h2.51v14.42Zm-2.51-5.83v-2.31c0-1.25-.42-2.31-1.26-3.2-.84-.89-1.89-1.33-3.15-1.33-1.55,0-2.77,.56-3.64,1.69-.88,1.13-1.32,2.71-1.32,4.74,0,1.75,.42,3.14,1.26,4.19s1.96,1.57,3.34,1.57,2.55-.5,3.44-1.5c.88-1,1.32-2.28,1.32-3.84Z"/></g><g><path class="cls-19" d="M145.83,43.89h-11.07c.04,1.75,.51,3.09,1.41,4.04,.9,.95,2.13,1.42,3.71,1.42,1.77,0,3.39-.58,4.87-1.75v2.36c-1.38,1-3.2,1.5-5.46,1.5s-3.96-.71-5.22-2.14-1.9-3.43-1.9-6.01c0-2.44,.69-4.43,2.07-5.96s3.1-2.3,5.15-2.3,3.64,.66,4.76,1.99c1.12,1.33,1.68,3.17,1.68,5.53v1.32Zm-2.57-2.13c-.01-1.45-.36-2.58-1.05-3.38-.69-.81-1.65-1.21-2.87-1.21s-2.19,.42-3.02,1.27c-.83,.85-1.34,1.96-1.53,3.32h8.47Z"/><path class="cls-19" d="M163.01,51.1h-2.51v-2.66h-.06c-1.16,2.02-2.96,3.03-5.39,3.03-1.97,0-3.54-.7-4.72-2.1s-1.77-3.31-1.77-5.73c0-2.59,.65-4.67,1.96-6.23,1.31-1.56,3.05-2.34,5.22-2.34s3.72,.85,4.7,2.54h.06v-9.71h2.51v23.21Zm-2.51-7.09v-2.31c0-1.26-.42-2.34-1.26-3.21-.84-.88-1.9-1.32-3.18-1.32-1.53,0-2.74,.56-3.61,1.68-.88,1.12-1.32,2.67-1.32,4.65,0,1.81,.42,3.23,1.26,4.28s1.97,1.57,3.39,1.57,2.53-.5,3.41-1.52c.87-1.01,1.31-2.29,1.31-3.83Z"/></g><path class="cls-27" d="M119.08,88.57c-18.32-12.37-36.64-24.73-54.97-37.1,1.16,.1,2.61,.27,4.27,.58,0,0,2.01,.38,4.05,.98,3.01,.88,22.87,13.17,49.26,31.43-.87,1.37-1.74,2.75-2.62,4.12Z"/><path class="cls-14" d="M124.31,88.57l54.97-37.1c-1.16,.1-2.61,.27-4.27,.58,0,0-2.01,.38-4.05,.98-3.01,.88-22.87,13.17-49.26,31.43,.87,1.37,1.74,2.75,2.62,4.12Z"/><path class="cls-7" d="M119.79,81.18c-.46-2.46-1.49-6.03-4.14-9.29-4.13-5.1-9.79-6.57-13.99-7.83-6.47-1.95-15.47-5.24-26.64-11.19"/><path class="cls-7" d="M122.01,78.29c-.61-2.43-1.88-5.92-4.73-9-4.25-4.6-9.58-5.71-14.47-6.92-6.24-1.55-14.85-4.06-25.49-8.32"/><path class="cls-6" d="M124.07,81.29c.46-2.46,1.49-6.03,4.14-9.29,4.13-5.1,9.79-6.57,13.99-7.83,6.47-1.95,15.47-5.24,26.64-11.19"/><path class="cls-6" d="M121.89,78.48c.61-2.43,1.86-5.92,4.7-9.02,4.23-4.62,9.56-5.74,14.44-6.97,6.23-1.57,14.84-4.11,25.46-8.41"/></g><g><g class="cls-22"><text class="cls-11" transform="translate(88.28 280.65)"><tspan class="cls-28" x="0" y="0">v</tspan><tspan class="cls-15" x="28.9" y="0" xml:space="preserve">  </tspan></text><text class="cls-12" transform="translate(88.28 280.65)"><tspan x="0" y="0" xml:space="preserve">v  </tspan></text></g><path class="cls-9" d="M108.42,252.74c-1.46,3.19-2.93,6.39-4.39,9.58"/><path class="cls-8" d="M114.68,251.26c1.09,0,2.18,0,3.28,0l-2.85,6.57"/><path class="cls-5" d="M110.17,252.96l-6.9,15.18"/><text class="cls-26" transform="translate(62.11 280.78)"><tspan class="cls-33" x="0" y="0">en </tspan><tspan class="cls-13" x="41.32" y="0"> </tspan><tspan class="cls-33" x="45.65" y="0">ision</tspan></text></g><g><text class="cls-31" transform="translate(62.38 208.15)"><tspan x="0" y="0">San o</tspan></text><g><path class="cls-30" d="M152.24,215.24c-.55-1.29-1.1-2.59-1.64-3.88l5,1.01c-2.35-1.04-5.87-3.09-8.03-7.02-2.25-4.11-1.45-8.17-1.47-13.07-.02-5.59,.23-13.61,1.47-23.63-.7,1.7-1.39,3.39-2.09,5.09l-2.09-5.09c.25,9.99-.13,17.87-.55,23.39-.4,5.23-.95,9.16,.93,13.68,2.04,4.91,5.83,7.87,8.47,9.52Z"/><polygon class="cls-30" points="158.88 183.82 156.53 182.37 158.92 180.85 132.1 180.46 135.06 181.99 132.05 183.42 158.88 183.82"/><polygon class="cls-4" points="152.36 180.4 149.43 179.97 149.69 177.51 147.4 178 147.25 174.98 144.36 181.7 137.45 184.06 140.44 184.45 139.78 186.7 142.25 186.63 142.45 189.59 145.64 183.08 152.36 180.4"/><path class="cls-23" d="M142.18,186.7l.07,1.05,2.88-5.38c-.99,1.45-1.97,2.89-2.96,4.34Z"/><path class="cls-23" d="M147.48,177.91l-.04-.75-2.6,4.83c.88-1.36,1.76-2.72,2.64-4.08Z"/><path class="cls-23" d="M140.32,184.53l-.76-.13,5.18-2.3c-1.47,.81-2.95,1.62-4.42,2.44Z"/><path class="cls-23" d="M149.57,179.9l.61,.12c-1.65,.77-3.3,1.53-4.96,2.3,1.45-.81,2.9-1.61,4.34-2.42Z"/></g></g><g><g><path class="cls-34" d="M119.07,355.25c13.08-5.51,23.16-17.32,26.76-31.1-3,14.16-12.79,26.66-25.93,32.92l-.83-1.82h0Z"/><path class="cls-34" d="M140.73,341.02c10.73-5.96,16.51-19.21,13.71-31.17l.57,.35c-2.64,.63-5.19,1.7-7.52,3.11-7.17,4.23-11.51,12.46-11.14,20.76-.89-11.85,7.51-22.18,18.89-24.91,3.51,12.63-2.2,26.87-13.49,33.58l-1.02-1.72h0Z"/><path class="cls-3" d="M122.43,350.13c13.96,2.52,28.86-1.89,39.39-11.47-10.24,10.23-25.26,15.36-39.69,13.45l.29-1.98h0Z"/><path class="cls-3" d="M148.35,350.02c12.24,.86,24.32-7.1,28.5-18.65l.29,.6c-2.55-.91-5.27-1.4-8-1.49-8.31-.37-16.44,4.16-20.66,11.33,5.67-10.39,18.44-14.51,29.42-10.58-3.94,12.5-16.5,21.32-29.63,20.79l.08-2h0Z"/></g><text class="cls-2" transform="translate(62.28 341.57)"><tspan class="cls-24" x="0" y="0">P</tspan><tspan x="21.53" y="0">e</tspan><tspan class="cls-17" x="39.86" y="0">r</tspan><tspan class="cls-1" x="52.69" y="0">a</tspan></text></g></svg>